<svg xmlns="http://www.w3.org/2000/svg" width="42.009" height="42" viewBox="0 0 42.009 42">
  <path id="blog-icon" d="M41.88,20.131A2.7,2.7,0,0,0,40.707,18.4a11.322,11.322,0,0,0-2.344-.253c-1.885-.084-2.091-.122-2.691-.469-.947-.553-1.2-1.153-1.21-2.766a12.1,12.1,0,0,0-3.835-8.562,14.309,14.309,0,0,0-6.142-3.8c-.553-.169-1.791-.225-5.936-.272C12.04,2.2,10.6,2.332,8.383,3.213A13.327,13.327,0,0,0,.309,12.647c-.2.825-.244,2.147-.291,9.743-.056,9.518.009,10.915.6,12.8a13.184,13.184,0,0,0,9.79,8.843c1.388.253,18.5.309,20.256.075a12.559,12.559,0,0,0,7.68-3.929,12.838,12.838,0,0,0,3.3-5.823c.46-1.65.422-13.391.234-14.226ZM11.674,14.166c.731-.741.938-.769,5.514-.769,4.117,0,4.257.009,4.858.319A2.065,2.065,0,0,1,23.3,15.77,2.216,2.216,0,0,1,22.149,17.8c-.431.272-.685.291-4.717.309a45.843,45.843,0,0,1-4.764-.113,2.389,2.389,0,0,1-.994-3.826ZM29.661,32.9l-1.4.225L21,33.212c-6.386.075-8.187-.038-8.524-.188a2.607,2.607,0,0,1-1.4-1.819,2.647,2.647,0,0,1,.769-2.1c.666-.6.957-.619,9.124-.628,8.4-.009,8.355-.009,9.153.731a2.316,2.316,0,0,1-.46,3.695Z" transform="translate(-0.002 -2.258)"/>
</svg>
