<svg xmlns="http://www.w3.org/2000/svg" width="17.93" height="17.93" viewBox="0 0 17.93 17.93">
  <path id="copylinkicon" d="M11.438,6.492a5.32,5.32,0,0,1,.013,7.515l-.013.013L9.084,16.373A5.323,5.323,0,0,1,1.557,8.846l1.3-1.3a.56.56,0,0,1,.956.371,6.453,6.453,0,0,0,.339,1.846.564.564,0,0,1-.132.582L3.56,10.8A2.521,2.521,0,1,0,7.1,14.392l2.353-2.353a2.521,2.521,0,0,0,0-3.566,2.623,2.623,0,0,0-.362-.3.562.562,0,0,1-.243-.441,1.4,1.4,0,0,1,.41-1.044L10,5.951a.563.563,0,0,1,.721-.061,5.34,5.34,0,0,1,.719.6Zm4.935-4.936a5.329,5.329,0,0,0-7.528,0L6.492,3.91l-.013.013a5.324,5.324,0,0,0,.731,8.117.563.563,0,0,0,.721-.061l.737-.737a1.4,1.4,0,0,0,.41-1.044.562.562,0,0,0-.243-.441,2.623,2.623,0,0,1-.362-.3,2.521,2.521,0,0,1,0-3.566l2.353-2.353a2.521,2.521,0,1,1,3.543,3.588l-.458.458a.564.564,0,0,0-.132.582,6.453,6.453,0,0,1,.339,1.846.56.56,0,0,0,.956.371l1.3-1.3a5.329,5.329,0,0,0,0-7.528Z" transform="translate(0 0)"/>
</svg>
