<svg xmlns="http://www.w3.org/2000/svg" width="47.25" height="42" viewBox="0 0 47.25 42">
  <path id="listings-icon" d="M23.625,9.43,5.7,25.242a3.8,3.8,0,0,1-.449.275V40.688A1.312,1.312,0,0,0,6.562,42H18.8L15.75,36.027l8.54-5.25L19.355,21,31.5,32.218l-8.54,5.25L26.234,42H40.687A1.312,1.312,0,0,0,42,40.688V25.52a3.827,3.827,0,0,1-.431-.263Zm23.189,9.952L42,15.131V3.938a1.312,1.312,0,0,0-1.312-1.312h-5.25a1.312,1.312,0,0,0-1.312,1.312v4.24L25.819.846a3.269,3.269,0,0,0-4.385,0l-21,18.54a1.313,1.313,0,0,0-.1,1.854L2.092,23.19a1.313,1.313,0,0,0,1.854.1L22.757,6.7a1.314,1.314,0,0,1,1.737,0L43.305,23.289a1.314,1.314,0,0,0,1.854-.1l1.755-1.954A1.312,1.312,0,0,0,46.814,19.382Z" transform="translate(0)"/>
</svg>
