<svg xmlns="http://www.w3.org/2000/svg" width="38.745" height="42.267" viewBox="0 0 38.745 42.267">
  <g id="perfomance-icon" transform="translate(-5.625 -4.5)">
    <path id="Path_31" data-name="Path 31" d="M13.256,46.767h5.283a.883.883,0,0,0,.881-.881V5.381a.883.883,0,0,0-.881-.881H13.256a.883.883,0,0,0-.881.881V45.887A.883.883,0,0,0,13.256,46.767Z" transform="translate(3.817)"/>
    <path id="Path_32" data-name="Path 32" d="M6.506,37.861h5.283a.883.883,0,0,0,.881-.881V21.131a.883.883,0,0,0-.881-.881H6.506a.883.883,0,0,0-.881.881v15.85A.883.883,0,0,0,6.506,37.861Z" transform="translate(0 8.906)"/>
    <path id="Path_33" data-name="Path 33" d="M20.017,40.406h5.261a.888.888,0,0,0,.892-.892V16.642a.888.888,0,0,0-.892-.892H20.017a.888.888,0,0,0-.892.892V39.514A.888.888,0,0,0,20.017,40.406Z" transform="translate(7.634 6.361)"/>
    <path id="Path_34" data-name="Path 34" d="M25.875,9.892v33.44a.888.888,0,0,0,.892.892h5.261a.888.888,0,0,0,.892-.892V9.892A.888.888,0,0,0,32.028,9H26.767A.888.888,0,0,0,25.875,9.892Z" transform="translate(11.451 2.545)"/>
  </g>
</svg>
