<svg xmlns="http://www.w3.org/2000/svg" width="19.926" height="19.89" viewBox="0 0 19.926 19.89">
  <path id="phone-icon" d="M21.056,16.419v2.7a1.8,1.8,0,0,1-1.961,1.8,17.8,17.8,0,0,1-7.762-2.761,17.539,17.539,0,0,1-5.4-5.4,17.8,17.8,0,0,1-2.761-7.8A1.8,1.8,0,0,1,4.965,3h2.7a1.8,1.8,0,0,1,1.8,1.547,11.549,11.549,0,0,0,.63,2.527,1.8,1.8,0,0,1-.4,1.9L8.545,10.114a14.391,14.391,0,0,0,5.4,5.4l1.142-1.142a1.8,1.8,0,0,1,1.9-.4,11.549,11.549,0,0,0,2.527.63,1.8,1.8,0,0,1,1.547,1.826Z" transform="translate(-2 22.057) rotate(-90)" fill="none" stroke="#000" stroke-linecap="round" stroke-linejoin="round" stroke-width="2"/>
</svg>
