<svg xmlns="http://www.w3.org/2000/svg" width="33.435" height="26" viewBox="0 0 33.435 26">
  <path id="rooms-icon" d="M16.273,9l-10.7,8.814v9.513a.929.929,0,0,0,.929.929l6.5-.017a.929.929,0,0,0,.924-.929V21.753a.929.929,0,0,1,.929-.929h3.715a.929.929,0,0,1,.929.929V27.3a.929.929,0,0,0,.929.932l6.5.018a.929.929,0,0,0,.929-.929V17.806L17.161,9A.708.708,0,0,0,16.273,9Zm16.9,5.991-4.852-4V2.95a.7.7,0,0,0-.7-.7h-3.25a.7.7,0,0,0-.7.7V7.164l-5.2-4.275a2.786,2.786,0,0,0-3.541,0L.252,14.989a.7.7,0,0,0-.093.981l1.48,1.8a.7.7,0,0,0,.981.095L16.273,6.619a.708.708,0,0,1,.888,0L30.814,17.864a.7.7,0,0,0,.981-.093l1.48-1.8a.7.7,0,0,0-.1-.983Z" transform="translate(0.001 -2.253)" fill="#fff"/>
</svg>
