<svg xmlns="http://www.w3.org/2000/svg" width="22.076" height="17.93" viewBox="0 0 22.076 17.93">
  <path id="twittericon" d="M19.807,7.849c.014.2.014.392.014.588A12.785,12.785,0,0,1,6.948,21.311,12.786,12.786,0,0,1,0,19.28a9.36,9.36,0,0,0,1.093.056A9.061,9.061,0,0,0,6.71,17.4a4.533,4.533,0,0,1-4.23-3.138,5.706,5.706,0,0,0,.855.07,4.785,4.785,0,0,0,1.191-.154A4.525,4.525,0,0,1,.9,9.74V9.684a4.557,4.557,0,0,0,2.045.574,4.531,4.531,0,0,1-1.4-6.051A12.861,12.861,0,0,0,10.87,8.942a5.108,5.108,0,0,1-.112-1.037,4.529,4.529,0,0,1,7.83-3.1A8.908,8.908,0,0,0,21.46,3.717,4.512,4.512,0,0,1,19.471,6.21a9.07,9.07,0,0,0,2.605-.7,9.726,9.726,0,0,1-2.269,2.339Z" transform="translate(0 -3.381)"/>
</svg>
