<svg xmlns="http://www.w3.org/2000/svg" width="18.694" height="18.694" viewBox="0 0 18.694 18.694">
  <path id="whatsapp-icon" d="M15.894,4.966A9.267,9.267,0,0,0,1.314,16.145L0,20.944l4.911-1.289a9.235,9.235,0,0,0,4.427,1.127h0a9.353,9.353,0,0,0,9.351-9.264,9.3,9.3,0,0,0-2.8-6.551ZM9.343,19.221A7.686,7.686,0,0,1,5.42,18.148l-.28-.167-2.913.764L3,15.9l-.184-.292a7.714,7.714,0,1,1,14.308-4.093A7.786,7.786,0,0,1,9.343,19.221Zm4.223-5.767c-.23-.117-1.369-.676-1.581-.751s-.367-.117-.522.117-.6.751-.734.91-.271.175-.5.058a6.3,6.3,0,0,1-3.15-2.754c-.238-.409.238-.38.68-1.264a.429.429,0,0,0-.021-.4c-.058-.117-.522-1.256-.714-1.719s-.38-.388-.522-.4-.288-.008-.442-.008a.857.857,0,0,0-.618.288,2.6,2.6,0,0,0-.81,1.932,4.535,4.535,0,0,0,.943,2.4,10.343,10.343,0,0,0,3.956,3.5,4.529,4.529,0,0,0,2.779.58,2.371,2.371,0,0,0,1.561-1.1,1.936,1.936,0,0,0,.134-1.1C13.95,13.625,13.8,13.567,13.566,13.454Z" transform="translate(0 -2.25)" fill="#fff"/>
</svg>
