<svg xmlns="http://www.w3.org/2000/svg" width="17.956" height="17.956" viewBox="0 0 17.956 17.956">
  <path id="whatsappicon" d="M11.391,2.25A8.781,8.781,0,0,0,2.576,11a8.656,8.656,0,0,0,1.265,4.517L2.25,20.206l4.88-1.55A8.83,8.83,0,0,0,20.206,11,8.781,8.781,0,0,0,11.391,2.25Zm4.383,12.069a2.277,2.277,0,0,1-1.559,1c-.413.022-.425.32-2.679-.659A9.2,9.2,0,0,1,7.82,11.151a4.323,4.323,0,0,1-.832-2.343,2.5,2.5,0,0,1,.858-1.833.863.863,0,0,1,.611-.257c.177,0,.292-.005.424,0s.328-.027.5.426.579,1.569.631,1.683a.408.408,0,0,1,0,.392,1.531,1.531,0,0,1-.239.364c-.118.126-.247.282-.352.379s-.239.223-.116.452A6.745,6.745,0,0,0,10.5,12.006a6.15,6.15,0,0,0,1.767,1.175c.221.12.353.107.49-.037s.587-.631.745-.848.307-.175.511-.093,1.289.664,1.51.784.368.182.421.277A1.851,1.851,0,0,1,15.774,14.319Z" transform="translate(-2.25 -2.25)"/>
</svg>
